<svg xmlns="http://www.w3.org/2000/svg" width="512" height="512" viewBox="0 0 512 512" role="img" aria-labelledby="title desc">
  <title id="title">Todolist Kanban</title>
  <desc id="desc">A dark app icon with a kanban board and check mark.</desc>
  <rect width="512" height="512" fill="#0d1117"/>
  <rect x="38" y="38" width="436" height="436" rx="86" fill="#161b22" stroke="#30363d" stroke-width="10"/>
  <path d="M155 172h202c27 0 49 22 49 49v134c0 27-22 49-49 49H155c-27 0-49-22-49-49V221c0-27 22-49 49-49Z" fill="#0f1720" stroke="#58a6ff" stroke-width="16"/>
  <path d="M177 222v132M256 222v132M335 222v132" stroke="#30363d" stroke-width="14" stroke-linecap="round"/>
  <rect x="143" y="241" width="55" height="40" rx="16" fill="#7c3aed"/>
  <rect x="143" y="302" width="55" height="40" rx="16" fill="#58a6ff"/>
  <rect x="229" y="241" width="55" height="40" rx="16" fill="#3fb950"/>
  <rect x="314" y="241" width="55" height="40" rx="16" fill="#f78166"/>
  <path d="M166 143l51 51 128-128" fill="none" stroke="#7ee787" stroke-width="34" stroke-linecap="round" stroke-linejoin="round"/>
</svg>
